#N canvas 920 599 1132 1097 12;
#X obj 330 974 netsend -u -b;
#X msg 492 947 disconnect;
#X obj 113 142 pdchoco/slip_parse;
#X obj 108 173 oscparse;
#X obj 108 201 list trim;
#X obj 113 104 comport;
#X obj 75 308 tgl 19 0 empty empty empty 0 -10 0 12 #fcfcfc #000000 #000000 0 1;
#X msg 108 19 devices;
#X obj 168 302 nbx 5 17 -1e+37 1e+37 0 0 empty empty empty 0 -10 0 12 #fcfcfc #000000 #000000 0 256;
#X obj 79 434 change;
#X text 132 436 change transforme le flux en evenement;
#X text 79 406 mode direct;
#X text 153 510 mode flip flop;
#X obj 153 532 pdchoco/stream_flip_flop;
#X obj 152 633 tgl 19 0 empty empty empty 0 -10 0 12 #fcfcfc #000000 #000000 0 1;
#X obj 79 468 tgl 19 0 empty empty empty 0 -10 0 12 #fcfcfc #000000 #000000 0 1;
#X text 333 532 le change trasnforme le flux en evenement;
#X obj 153 575 change;
#X obj 221 343 / 4095;
#X obj 221 381 nbx 5 17 -1e+37 1e+37 0 0 empty empty empty 0 -10 0 12 #fcfcfc #000000 #000000 0 256;
#X msg 135 795 127;
#X msg 188 795 0;
#X obj 409 796 nbx 5 17 -1e+37 1e+37 0 0 empty empty empty 0 -10 0 12 #fcfcfc #000000 #000000 0 256;
#X obj 409 698 * 127;
#X obj 410 738 / 4095;
#X obj 410 771 nbx 5 17 -1e+37 1e+37 0 0 empty empty empty 0 -10 0 12 #fcfcfc #000000 #000000 0 256;
#X msg 492 926 connect 127.0.0.1 9888;
#X obj 136 830 oscformat -f i vkb_midi 1 note 72;
#X text 535 581 Canal 4 - /pot;
#X text 129 760 Canal 2 - /but;
#X obj 407 828 oscformat -f i vkb_midi 3 midi cc 48;
#X obj 692 829 oscformat -f i vkb_midi 3 midi cc 13;
#X obj 691 798 nbx 5 17 -1e+37 1e+37 0 0 empty empty empty 0 -10 0 12 #fcfcfc #000000 #000000 0 256;
#X obj 691 622 vsl 19 162 0 1 0 0 empty empty empty 0 -9 0 12 #fcfcfc #000000 #000000 0 1;
#X obj 729 618 pdchoco/stream_smooth 0.1.0.1;
#X obj 729 644 pdchoco/scope 0 1;
#X text 947 613 lisser les valeurs;
#X msg 190 19 baud 115200 \, open 1;
#X msg 241 52 close;
#X obj 107 229 route bouton pot;
#X obj 691 563 / 1023;
#X obj 691 590 * 63;
#X connect 1 0 0 0;
#X connect 2 0 3 0;
#X connect 3 0 4 0;
#X connect 4 0 39 0;
#X connect 5 0 2 0;
#X connect 6 0 13 0;
#X connect 6 0 9 0;
#X connect 7 0 5 0;
#X connect 8 0 18 0;
#X connect 9 0 15 0;
#X connect 13 0 17 0;
#X connect 14 0 23 0;
#X connect 15 0 20 0;
#X connect 17 0 14 0;
#X connect 18 0 19 0;
#X connect 19 0 34 0;
#X connect 19 0 40 0;
#X connect 20 0 27 0;
#X connect 21 0 27 0;
#X connect 22 0 30 0;
#X connect 23 0 24 0;
#X connect 24 0 25 0;
#X connect 25 0 22 0;
#X connect 26 0 0 0;
#X connect 27 0 0 0;
#X connect 30 0 0 0;
#X connect 31 0 0 0;
#X connect 32 0 31 0;
#X connect 33 0 32 0;
#X connect 34 0 35 0;
#X connect 37 0 5 0;
#X connect 38 0 5 0;
#X connect 39 0 6 0;
#X connect 39 1 8 0;
#X connect 40 0 41 0;
#X connect 41 0 33 0;
