#N canvas 1099 326 1078 976 12;
#X obj 328 921 netsend -u -b;
#X msg 490 894 disconnect;
#X obj 113 142 pdchoco/slip_parse;
#X obj 108 173 oscparse;
#X obj 108 201 list trim;
#X obj 107 229 route bouton angle;
#X obj 113 104 comport;
#X obj 75 308 tgl 19 0 empty empty empty 0 -10 0 12 #fcfcfc #000000 #000000 0 1;
#X msg 109 49 devices;
#X msg 189 49 baud 115200 \, open 4;
#X obj 168 302 nbx 5 17 -1e+37 1e+37 0 0 empty empty empty 0 -10 0 12 #fcfcfc #000000 #000000 0 256;
#X obj 79 434 change;
#X text 132 436 change transforme le flux en evenement;
#X text 79 406 mode direct;
#X text 153 510 mode flip flop;
#X obj 153 532 pdchoco/stream_flip_flop;
#X obj 152 633 tgl 19 0 empty empty empty 0 -10 0 12 #fcfcfc #000000 #000000 0 1;
#X obj 79 468 tgl 19 0 empty empty empty 0 -10 0 12 #fcfcfc #000000 #000000 0 1;
#X text 333 532 le change trasnforme le flux en evenement;
#X obj 153 575 change;
#X obj 221 343 / 4095;
#X obj 221 381 nbx 5 17 -1e+37 1e+37 0 0 empty empty empty 0 -10 0 12 #fcfcfc #000000 #000000 0 256;
#X msg 133 742 127;
#X msg 186 742 0;
#X obj 407 743 nbx 5 17 -1e+37 1e+37 0 0 empty empty empty 0 -10 0 12 #fcfcfc #000000 #000000 0 256;
#X obj 408 649 * 127;
#X obj 408 685 / 4095;
#X obj 408 718 nbx 5 17 -1e+37 1e+37 0 0 empty empty empty 0 -10 0 12 #fcfcfc #000000 #000000 0 256;
#X msg 490 873 connect 127.0.0.1 9888;
#X obj 134 777 oscformat -f i vkb_midi 1 note 72;
#X text 594 594 Canal 4 - /pot;
#X text 127 707 Canal 2 - /but;
#X obj 405 775 oscformat -f i vkb_midi 3 midi cc 48;
#X text 246 228;
#X obj 690 776 oscformat -f i vkb_midi 3 midi cc 13;
#X connect 1 0 0 0;
#X connect 2 0 3 0;
#X connect 3 0 4 0;
#X connect 4 0 5 0;
#X connect 5 0 7 0;
#X connect 5 1 10 0;
#X connect 6 0 2 0;
#X connect 7 0 15 0;
#X connect 7 0 11 0;
#X connect 8 0 6 0;
#X connect 9 0 6 0;
#X connect 10 0 20 0;
#X connect 11 0 17 0;
#X connect 15 0 19 0;
#X connect 16 0 25 0;
#X connect 17 0 29 0;
#X connect 19 0 16 0;
#X connect 20 0 21 0;
#X connect 22 0 29 0;
#X connect 23 0 29 0;
#X connect 24 0 32 0;
#X connect 25 0 26 0;
#X connect 26 0 27 0;
#X connect 27 0 24 0;
#X connect 28 0 0 0;
#X connect 29 0 0 0;
#X connect 32 0 0 0;
#X connect 34 0 0 0;
