#N canvas 1073 467 975 976 12;
#X obj 261 907 netsend -u -b;
#X msg 413 869 disconnect;
#X obj 97 162 pdchoco/slip_parse;
#X obj 92 193 oscparse;
#X obj 92 221 list trim;
#X obj 91 249 route bouton angle;
#X obj 97 124 comport;
#X obj 59 328 tgl 19 0 empty empty empty 0 -10 0 12 #fcfcfc #000000 #000000 0 1;
#X msg 93 69 devices;
#X msg 173 69 baud 115200 \, open 4;
#X obj 152 309 nbx 5 17 -1e+37 1e+37 0 0 empty empty empty 0 -10 0 12 #fcfcfc #000000 #000000 0 256;
#X obj 63 454 change;
#X text 120 456 change transforme le flux en evenement;
#X text 63 426 mode direct;
#X text 137 530 mode flip flop;
#X obj 137 552 pdchoco/stream_flip_flop;
#X obj 136 653 tgl 19 0 empty empty empty 0 -10 0 12 #fcfcfc #000000 #000000 0 1;
#X obj 63 488 tgl 19 0 empty empty empty 0 -10 0 12 #fcfcfc #000000 #000000 0 1;
#X text 165 574 le change trasnforme le flux en evenement;
#X obj 137 595 change;
#X obj 209 334 / 4095;
#X obj 212 394 nbx 5 17 -1e+37 1e+37 0 0 empty empty empty 0 -10 0 12 #fcfcfc #000000 #000000 0 256;
#X text 213 224 angle = volume master;
#X obj 296 306 pdchoco/scope 0 1;
#X obj 300 417 pdchoco/stream_smooth;
#X obj 504 280 pdchoco/stream_smooth 0.1.0.1;
#X obj 504 306 pdchoco/scope 0 1;
#X text 722 275 lisser les valeurs;
#X msg 117 762 127;
#X msg 170 762 0;
#X obj 391 763 nbx 5 17 -1e+37 1e+37 0 0 empty empty empty 0 -10 0 12 #fcfcfc #000000 #000000 0 256;
#X obj 392 669 * 127;
#X obj 392 705 / 4095;
#X obj 392 738 nbx 5 17 -1e+37 1e+37 0 0 empty empty empty 0 -10 0 12 #fcfcfc #000000 #000000 0 256;
#X obj 118 797 oscformat -f i vkb_midi 2 note 72;
#X obj 389 795 oscformat -f i vkb_midi 4 midi cc 48;
#X text 116 725 Canal 2;
#X text 388 633 Canal 4, f 9;
#X msg 413 848 connect 127.0.0.1 9888;
#X connect 1 0 0 0;
#X connect 2 0 3 0;
#X connect 3 0 4 0;
#X connect 4 0 5 0;
#X connect 5 0 7 0;
#X connect 5 1 10 0;
#X connect 6 0 2 0;
#X connect 7 0 15 0;
#X connect 7 0 11 0;
#X connect 8 0 6 0;
#X connect 9 0 6 0;
#X connect 10 0 20 0;
#X connect 11 0 17 0;
#X connect 15 0 19 0;
#X connect 16 0 31 0;
#X connect 19 0 16 0;
#X connect 20 0 21 0;
#X connect 21 0 23 0;
#X connect 21 0 24 0;
#X connect 21 0 25 0;
#X connect 25 0 26 0;
#X connect 28 0 34 0;
#X connect 29 0 34 0;
#X connect 30 0 35 0;
#X connect 31 0 32 0;
#X connect 32 0 33 0;
#X connect 33 0 30 0;
#X connect 34 0 0 0;
#X connect 35 0 0 0;
#X connect 38 0 0 0;
